<?xml version="1.0" encoding="UTF-8" standalone="no"?>
<!DOCTYPE svg PUBLIC "-//W3C//DTD SVG 1.1//EN" "http://www.w3.org/Graphics/SVG/1.1/DTD/svg11.dtd">
<svg width="100%" height="100%" viewBox="0 0 40 40" version="1.1" xmlns="http://www.w3.org/2000/svg" xmlns:xlink="http://www.w3.org/1999/xlink" xml:space="preserve" xmlns:serif="http://www.serif.com/" style="fill-rule:evenodd;clip-rule:evenodd;stroke-linejoin:round;stroke-miterlimit:1.41421;">
    <g transform="matrix(1.05002,0,0,1.05002,-5.03906,-3.97214)">
        <circle cx="23.846" cy="22.83" r="19.047" style="fill:white;"/>
    </g>
    <clipPath id="_clip1">
        <path d="M31.687,10.788L21.237,21.237L18.763,18.763L29.212,8.313L31.687,10.788Z"/>
    </clipPath>
    <g clip-path="url(#_clip1)">
    </g>
    <g transform="matrix(1,0,0,1,-10.4495,10.4495)">
        <clipPath id="_clip2">
            <path d="M31.687,10.788L21.237,21.237L18.763,18.763L29.212,8.313L31.687,10.788Z"/>
        </clipPath>
        <g clip-path="url(#_clip2)">
            <g transform="matrix(1,-0,-0,1,10.4495,-10.4495)">
            </g>
        </g>
    </g>
    <g transform="matrix(6.12323e-17,1,-1,6.12323e-17,40,0)">
        <clipPath id="_clip3">
            <path d="M29.212,8.313L31.687,10.788L21.237,21.237L18.763,18.763L29.212,8.313Z"/>
        </clipPath>
        <g clip-path="url(#_clip3)">
            <g transform="matrix(6.12323e-17,-1,1,6.12323e-17,-2.44929e-15,40)">
            </g>
        </g>
    </g>
    <g transform="matrix(6.12323e-17,1,-1,6.12323e-17,29.5505,-10.4495)">
        <clipPath id="_clip4">
            <path d="M29.212,8.313L31.687,10.788L21.237,21.237L18.763,18.763L29.212,8.313Z"/>
        </clipPath>
        <g clip-path="url(#_clip4)">
            <g transform="matrix(6.12323e-17,-1,1,6.12323e-17,10.4495,29.5505)">
            </g>
        </g>
    </g>
</svg>
